<svg width="795" height="499" viewBox="0 0 795 499" fill="none" xmlns="http://www.w3.org/2000/svg">
<path id="MX-AGU" title="Aguascalientes" d="M391.17 310.51L388.76 307.04L394.26 296.34L400.59 293.26L402.19 291.08L409.46 296.27L411.19 300.75L411.21 302.94L413.17 305.08L408.89 307.05L405.62 311.1L401.34 312.2L397.43 309.77L393.22 309.39L391.17 310.51Z" stroke="#777777"/>
<path id="MX-BCN" title="Baja California" d="M107.13 138.57H106.48L103.6 140.41L103.5 138.9L107.2 134.99L106.44 137.24L107.13 138.57ZM79.78 126.58L81.21 133.33L80.57 136.32L79.41 136.46L78.15 134.73L76.19 135L79 131.19L78.56 128.9L79.78 126.58ZM137.92 118.02L141.43 120.47L140.89 120.94L137.92 118.02ZM146.38 116.52L146.45 118.18L145.29 118.22L144.94 116.66L146.38 116.52ZM3.52 103.45L3.02 105.81L4.33 107.01L4.56 109.91L3.15 112.22L1 104.64L3.52 103.45ZM121.3 93.16L125.37 95.77L126.43 97.98L125.96 100.01L131.04 100.96L130.87 105.29L132.68 107.37L132.34 109.27L124.14 101.06L122.77 100.8L120.48 97.24L121.3 93.16ZM89.83 7.58L87.17 7.71L84.23 14.02L85.63 16.01L84.52 23.61L90.21 27.45L90.66 33.19L88.8 37.06L87.92 46.61L89.9 50.08L89.36 51.39L92.2 53.23L92.71 61.97L94.43 66.01L93.51 74.78L96.86 81.22L99.99 83.77L100.41 86.53L101.67 87.57L103.18 86.84L104.99 87.62L119.29 100.84L118.88 103.06L121.75 107.25L121.29 110.29L122.1 111.98L124.42 110.29L125.85 111.5L126.36 114.54L128.77 113.47L129.85 114.09L132.64 122.96L135.22 124.42L137.66 123.83L139.03 124.76L138.44 129.09L140.41 131.89L141.06 140.67L139.55 138.7L107.86 138.59L107.69 136.25L108.55 137.46L109.34 136.07L107.73 135.66L107.38 133.94L108.9 130.95L107.09 130.04L109.02 123.97L106.19 121.15L106.12 119.12L103.48 118.6L99.73 112.31L95.52 109.95L94.33 106.18L92.62 106.06L91.57 103.73L86.41 98.63L80.44 96.72L78.89 94.21L73.73 91.08L72.54 91.33L67.77 87.44L67.7 83.42L64.99 81.21L65.09 72.25L61.57 68.46L60.94 66.3L61.21 67.64L59.72 67.29L59.99 68.73L58.93 66.68L58.87 57.8L53.47 52.4L51.67 52.13L52.41 46.85L51.03 44.14L47.09 38.8L42.99 35.37L43.92 32.12L41.57 29.64L43.6 30.44L44.85 26.9L38.12 21.65L37.19 15.8L34.13 13.78L31.99 7.88L32.03 6.54L92.22 1L89.97 4.02L89.83 7.58Z" stroke="#777777"/>
<path id="MX-BCS" title="Baja California Sur" d="M91.6999 398.28L93.1899 398.65L91.3899 399.23L91.6999 398.28ZM185.6 385.33L187.33 387.08L186.48 389.25L184.09 387.05L185.6 385.33ZM212.06 237.85L215.29 244.35L213.02 243.01L212.06 237.85ZM160.58 233.71L163.7 233.87L166.57 236.04L167.55 239.3L160.58 233.71ZM201.31 233.47L203.08 235.06L202.15 237.09L200.58 234.94L201.31 233.47ZM192.67 217.81L196 220.4L197.03 224.1L193.92 222.15L192.35 219.23L192.67 217.81ZM157 213.23L155.45 221.78L156.11 223.11L154.84 224.85L158.77 233.36L155.88 230.25L156.86 229.26L155.94 227.21L152.69 226.44L157 213.23ZM190.96 201.05L191.27 204.35L190.16 202.51L190.96 201.05ZM183.76 191.23L183.66 193.92L182.46 193.18L179.59 198.06L180.9 191.96L183.76 191.23ZM129.48 172.81L131.57 174.71L128.64 173.59L129.48 172.81ZM158.04 158.04L159.1 159.04L158.76 160.26L158.04 158.04ZM163.11 152.53L163.81 153.21L162.88 153.25L163.11 152.53ZM106.48 138.57H107.13L139.54 138.67L141.05 140.64L145.4 147.08L151.28 149.82L154.9 159.29L157.5 161.39L161.44 162.59L159.89 165.97L163.42 169.96L162.57 173.18L165.8 177.43L166.8 178.18L168.35 176.8L164.9 173.22L163.99 168.67L164.73 168.2L171.23 173.75L171.39 177.83L174.11 178.68L173.54 181.54L175.62 184.22L175.34 186.02L177.32 191.18L176.32 194.19L177.63 199.4L179.65 200.7L182.29 206.21L184.85 206.52L187.61 216.68L191.32 220.36L193.18 223.87L193.68 227.14L192.07 229.84L191.85 232.93L195.01 241.05L196.55 242.4L202.1 243.23L199.67 243.61L199.88 245.07L201.56 244.94L202.76 243.13L202.19 238.88L204.46 238.64L205.95 241.16L210.16 243.73L210.87 246.96L214.67 246.38L214.61 250.33L217.85 253.49L217.89 257.16L223.66 260.26L224.98 264.27L223.88 269.91L213.99 277.97L211.27 278.67L208.85 276.66L206.21 266.79L201.88 259.78L195.69 256.5L184.05 244.97L170.69 236.73L168.9 232.53L164.74 233.9L164.16 230.41L162.24 227.75L157.67 226.74L157.38 221.19L156.76 225.88H156.03L155.67 221.78L157.22 219.66L156.54 216.94L158.39 213.05L158.74 204.02L155.44 193.43L152.56 191.13L150.04 186.33L147.82 186.72L143.27 184.41L136.29 178.39L138.66 179.18L133.56 176.33L133.73 175.04L131.06 170.99L130.7 172.04L129.19 171.34L131.56 169.62L131.16 165.52L130.18 169.39L128.55 170.4L128.61 172.23L124.51 170.69L124.8 169.98L123.36 170.2L121.53 173.14L119.99 173.29L116.89 170.95L115.28 167.26L113.47 165.92L111.26 165.35L110.2 166.09L106.74 161.97L99.3299 160.35L97.9999 158.9L97.4899 153.81L91.8199 150.69L88.9299 146.17L87.6399 146.66L84.9699 145.14L83.1099 141.55L97.5799 143.63L101.39 142.51L102.01 140.67L102.87 140.96L102.35 143.44L103.11 144.7L107.98 148.14L109.06 146.18L111.16 146.9L113.61 149.99L114.2 148.82L112.63 147.2L112.75 146.15L113.56 146.39L113.03 142.69L111.28 141.25L110.45 144.28L107.27 145.49L105.63 144.25L106.48 144.21L105.74 142.23L106.91 140.49L106.48 138.57Z" stroke="#777777"/>
<path id="MX-CAM" title="Campeche" 	 d="M672.61 387.65L672.43 389.05L670.82 388.69L669.18 390.69L668.64 390.02L666.23 391.47L664.6 391L672.61 387.65ZM701.31 334.19L701.15 341.49L705.27 342L706.24 344.01L708.74 344.83L710.83 343.28L716.13 352.61L719.99 354.71L724.33 360.78L725.55 364.67L732.19 370.73L735.6 375.4L735.42 381.25L733.84 382.58L733.26 390.22L734.88 395.27L735.06 403.02L732.05 407.12L732.3 409.58L732.28 412.91L686.34 412.9L686.36 411.26L681.7 410.1L677.72 406.99L674.07 406.19L671.28 406.32L671.01 410.16L668.04 410.92L663.02 409.29L658.68 405.54L655 397.4L654.02 397.78L650.9 395.66L649.13 391.03L662.09 389.86L664.46 392.07L663.86 393.25L662.32 391.92L660.92 392.35L660.99 394.56L662.48 393.23L664.58 394.83L671.37 396.5L678.13 393.45L679.93 388.9L678.6 387.2L676.53 387.31L677.74 384.03L673.41 387.33L675.91 384.76L687.51 377.65L692.37 373.12L693.19 364L699.57 356.49L698.59 353.78L698.32 342.17L701.31 334.19Z" stroke="#777777"/>
<path id="MX-CHP" title="Chiapas" 		 d="M608.1 458.72L608.28 458.08L609.38 458.83L608.1 458.72ZM607.73 454.71L607.72 453.93L608.12 450.36L606.96 446.58L609.15 440.3L612.09 437.68L613.96 430.23L620.57 425.35L626.34 416.74L627.09 409.66L629.29 408.78L633.59 411.67L636.38 411.58L634.84 416.91L636.91 419.09L636.61 420.96L639.2 421.07L641.92 424.85L652.65 416.65L655.94 415.46L656.44 412.19L660.15 412.64L660.86 410.8L662.75 412.06L665.74 411.52L666.85 414.89L669.41 416.15L670.68 419.45L669.93 422.11L675.77 424.5L676.87 426.29L675.58 427.6L675.5 428.64L677.24 429.72L679.01 429.68L684.44 436.89L693.13 441.36L694.86 446.77L695.68 446.67L695.35 447.85L700.59 449.22L699.89 458.29L667.75 458.02L655.5 479.09L659.37 484.09L657.17 486.33L657.3 488.82L656.25 490.2L657.17 494.49L655.21 497.91L639.66 481.43L622.26 466.43L612.36 460.37L614.31 460.24L613.33 457.93L608.67 456.92L607.73 454.71Z" stroke="#777777"/>
<path id="MX-CHH" title="Chihuahua"  d="M375.89 108.2L373.63 112.36L375.36 113.32L375.37 114.36L373.17 115.36L371.44 119.37L368.39 121.09L366.12 124.87L365.56 125.97L366.43 127.39L362.83 135.58L360.46 135.25L360.45 136.8L361.57 136.98L362.06 138.44L359.82 139.3L360.81 143.89L359.72 145.05L360.53 149.57L361.9 150.9L362.41 161.6L364.78 163.07L364.37 164.61L360.23 166.56L360.57 168.67L363.8 172.4L361.04 172.46L360.41 171.45L354.81 172.74L349.89 170.33L348.85 171.39L350.87 172.17L350.8 173.17L348.3 173.56L345.64 175.62L343.75 178.7L343.74 180.81L339.85 181.76L335.2 178.47L330.7 177.7L328.03 180.02L322.31 179.71L321.21 177.82L319.57 178.11L316.25 175.66L314.31 175.43L311.81 172.2L306.9 169.79L305.92 171.62L304.16 172.19L301.81 181.02L303.05 183.05L299.88 185.37V186.73L298.47 186.93L298.83 189.07L296.19 193.32L297.77 196.78L295.65 200.2L290.89 204.53L289.58 203.04L284.37 201.41L284.06 200.09L281.43 201.52L275.81 190.61L266.45 188.48L262.05 176.9L260.63 175.98L260.71 169.8L259.65 167.47L257.82 167.48L257.7 164.58L252.13 164.42L248.35 164.65L244.81 162.81L246.29 153.63L243.06 146.04L239.73 143.69L240.05 139.58L237.96 136.6L236.14 135.86L236.34 132.41L234.59 130.73L235.63 129.34L239.61 128L242.65 129.42L247.7 125.75L243.9 123.08L243.49 118.23L245.16 114.57L244.74 108.09L246.23 106.83L246.33 104.14L248 102.96L248.71 92.84L248.05 86.62L246.39 84.64L248.25 76.03L246.8 74.7L247.77 71.37L244.79 62.57L245.35 60.15L244.31 59.22L244.22 56.8L241.49 54.15L243.1 53.46L243.57 50.38L241.17 44.02L242.11 42.74L241.06 41.7L255.16 41.66V28.5H297.21L299.8 29.44L301.68 31.03L305.32 37.84L311.58 40.78L316.06 46.41L320.41 49.02L321.62 51.73L325.05 54.25L325.43 55.62L332.63 58.73L338.01 63.95L339.06 69.13L342.75 73.41L343.55 83.07L347.08 89.82L350.93 93.39L354.56 94.68L356.35 97.65L359.18 99.52L365.94 101.32L367.56 103.7L371.63 104.38L375.89 108.2Z" stroke="#777777"/>
<path id="MX-COA" title="Coahuila" 	 d="M464.55 143.85L460.33 146.61L451.14 145.95L447.77 151.52L447.64 154.6L441.49 155.51L440.3 156.55L438.47 159.53L438.72 162.87L441.54 164.94L442.83 161.77L445.51 163.32L445.93 168.45L445.09 170.69L442.9 173.65L439.7 173.61L437.09 175.31L433.58 175.59L429.25 181.64L429.27 182.94L436.51 189.74L437.56 192.85L440.22 194.72L439.23 197.62L440.31 201.87L444.39 202.75L445.3 206.52L449.4 209.25L448.89 210.3L452.49 210.93L454.26 213L453.02 215.24L447.67 214.33L446.36 212.8L444.62 212.63L442.18 214.32L440.48 217.54L441.46 222.63L438.69 223.45L438.66 225.48L440.8 229.65L439.8 232.91L437.68 232.44L435.31 233.91L433.22 233.1L428.68 227.22L425.72 226.85L419.7 228.22L419.08 224.66L416.45 224.75L412.33 220.02L407.29 217.34L397.89 216.73L392.49 217.8L391.84 219.96L388.21 223L387.92 227.38L382.35 226.08L377.63 223.29L376.47 219.31L371.67 213.52L371.04 210.37L374.66 208.56L371.94 205.39L375.6 199.32L374.4 194.85L374.63 190.58L372.95 186.63L373.22 182.31L371.84 178.34L368.72 175L363.8 172.4L360.57 168.67L360.23 166.56L364.37 164.61L364.78 163.07L362.41 161.6L361.9 150.9L360.53 149.57L359.72 145.05L360.81 143.89L359.82 139.3L362.06 138.44L361.57 136.98L360.45 136.8L360.46 135.25L362.83 135.58L366.43 127.39L365.56 125.97L366.12 124.87L368.39 121.09L371.44 119.37L373.17 115.36L375.37 114.36L375.36 113.32L373.63 112.36L375.89 108.2L377.27 107.72L378.47 109.51L382.6 109.37L385.6 103.84L388.84 102.57L387.84 101.47L388.44 98.9L390.1 97.44L390.34 93.99L393.76 87.65L396.88 87.61L397.66 86.52L400.34 87.04L402.53 83.79L407.68 86.27L414.98 85.76L419.34 87.33L421.94 85.71L422.13 87.2L424.11 86.36L424.31 87.41L425.6 87.09L426.45 90.24L428.03 90.62L427.75 92.15L428.36 92.59L429.36 91.05L429.32 94.08L434 95.8L435.3 98.32L440.64 101.91L441.16 104.01L443.54 105.8L444.29 110.42L447.17 114.44L448.07 118.49L450.65 120.71L450.92 122.68L452.16 123.05L451.39 123.63L453.31 129.42L455.34 131.73L458.48 133.1L462.09 137.69L464.55 143.85Z" stroke="#777777"/>
<path id="MX-COL" title="Colima" 			 d="M373.21 382.93L370.74 385.17L369.34 385.14L369.37 386.93L366.83 389.81L361.32 385.45L352.12 381.32L352.42 379.29L351.32 378.69L349.48 379.63L342.95 377.05L343.49 376.54L345.41 376.59L346.89 374.8L348.59 375.17L349.94 373.75L356.66 373.36L359.76 371.04L364.42 371.15L370.76 367.19L371.08 371.1L373.33 373.19L372.34 379.43L373.21 382.93Z" stroke="#777777"/>
<path id="MX-DF"  title="Distrito Federal" d="M489.03 379.96L485.73 380.69L484.82 379.89L482.89 381.1L480.23 380.17L477.51 374.81L480.68 372.06L483.47 367.62L485.8 372.51L488.96 375.89L489.03 379.96Z" stroke="#777777"/>
<path id="MX-DUR" title="Durango" 		 d="M281.43 201.52L284.06 200.09L284.37 201.41L289.58 203.04L290.89 204.53L295.65 200.2L297.77 196.78L296.19 193.32L298.83 189.07L298.47 186.93L299.88 186.73V185.37L303.05 183.05L301.81 181.02L304.16 172.19L305.92 171.62L306.9 169.79L311.81 172.2L314.31 175.43L316.25 175.66L319.57 178.11L321.21 177.82L322.31 179.71L328.03 180.02L330.7 177.7L335.2 178.47L339.85 181.76L343.74 180.81L343.75 178.7L345.64 175.62L348.3 173.56L350.8 173.17L350.87 172.17L348.85 171.39L349.89 170.33L354.81 172.74L360.41 171.45L361.04 172.46L363.8 172.4L368.72 175L371.84 178.34L373.22 182.31L372.95 186.63L374.63 190.58L374.4 194.85L375.6 199.32L371.94 205.39L374.66 208.56L371.04 210.37L371.67 213.52L376.47 219.31L377.63 223.29L382.35 226.08L387.92 227.38L388.21 223L391.84 219.96L392.23 222.13L395.67 225.22L394.86 230.12L396.07 230.57L397.09 234.57L396.12 235.09L396.48 236.55L388.73 236.9L387.97 237.81L384.31 236.24L380.94 236.94L374.81 235.97L365.9 245.47L363.5 246.19L364.92 258.71L359.8 264.02L358.42 271.67L356.44 274.77L357.05 284.69L353.59 286.74L351.42 291.3L347.6 294.01L339.24 286.25L336.39 289.63L334.19 285.05L337.58 282.42L338.06 280.29L336.39 279.95L335.81 277.49L332.39 276.73L330.86 274.98L327.73 276.61L325.53 273.97L323.41 271.79L319.92 272.18L317.22 265.56L316 258.9L312.3 254.06L310.43 246.56L307.43 240.09L304.01 237.49L299.97 236.32L296.51 239.48L292.95 239.91L288.02 227.92L286.7 227.61L285.81 225L282.98 225.22L281.78 224.26L282.11 222.82L278.67 217.36L279.27 210.28L280.6 207.07L279.45 205.75L282.37 202.76L281.43 201.52Z" stroke="#777777"/>
<path id="MX-GUA" title="Guanajuato" d="M466.09 315.14L466.48 317.69L465.33 319.6L467.81 320.21L467.06 322.82L463.95 324.69L462.22 322.94L460.7 323.5L458.45 326.84L457.88 329.89L457.06 329.41L456.18 330.91L447.38 331.52L446.66 332.93L446.01 336.73L447.76 339.94L447.75 342.65L451.58 347.59L451.93 353.97L448.69 355.4L446.86 357.77L446.69 356.03L443.37 357.53L435.44 356.6L434.93 353.69L431.33 353.85L429.78 355.77L425.44 354.79L424.5 349.32L426.17 349.57L423.74 347.02L419.58 347.56L417.57 350.36L413.97 349.77L412.79 350.47L411.54 349.93L411.22 346.68L408.91 345.67L411.08 339.47L407.31 334.86L411.25 330.57L413.16 326.62L415.65 324.71L417.18 320.61L419.08 320.15L419.75 318.78L418.82 316L420.22 309.77L421.42 308.41L420.68 307.58L421.9 306.29L422.87 306.92L423.68 305.98L435.94 309.46L443.65 314.61L447.92 313.97L448.39 311.02L449.47 310.29L453.36 311.57L458.96 316.3L461.16 315.59L463.45 316.47L466.09 315.14Z" stroke="#777777"/>
<path id="MX-GRO" title="Guerrero" 	 d="M450.12 380.26L450.42 383.2L448.63 389.35L450.85 392.9L448.94 395.44L452.44 396.16L454.23 399.2L457.4 396.59L459.87 396.01L459.53 394.03L466.86 393.03L467.3 391.47L469.06 391.15L468.7 389.43L472.4 391.13L474.03 390.76L473.89 392.71L476.53 393.29L478.55 395.96L484.06 396.66L486.36 398.99L486.31 400.22L489.01 402.02L490.23 404.27L493.22 404.07L492.6 405.84L496.81 407.62L496.93 408.69L501.21 407.65L504.43 410.43L502.52 415.8L505.25 421.86L505.85 426.44L504.75 429.33L507.6 430.62L507.94 433.7L510.15 436.64L509.23 439.52L506.17 441.33L505.99 442.68L501.88 446.27L501.42 448.29L496.78 451.83L491.29 445.72L487.99 446.26L477.37 443.06L468.63 441.84L463.74 439L464.13 437.92L462.78 438.63L460.78 436.46L434.19 426.98L430.56 423.03L424.32 420.4L423.64 418.47L419.51 416.71L415.52 411.14L409.51 408.34L406.87 409.02L406.16 403.82L412.64 401.2L415.08 401.29L413.42 401L412.94 395.14L413.24 393.99L414.88 393.17L415.41 393.99L416.63 392.48L416.69 393.53L419.52 392.64L422.72 395.45L428.42 394.03L435.34 395.12L436.61 397.6L438.67 396.62L444.43 399.98L445.2 398.97L442.37 395.18L440.85 387.8L442.42 385.92L443.41 387.53L447.87 381.62L450.12 380.26Z" stroke="#777777"/>
<path id="MX-HID" title="Hidalgo"			 d="M497.27 317.91L498.41 318.83L498.11 321.49L499.94 323.2L505.4 323.65L507.93 327.07L506.07 329.53L505.74 333.43L504.29 333.66L502.49 332.27L499.13 335.83L497.97 342.87L499.14 345.46L500.52 346.32L509.95 338.32L512.24 338.92L512.31 341.92L508.54 345.82L504.92 347.67L505.62 349.08L507.74 348.6L508.2 350.79L505.85 358.67L506.55 363.4L504.17 362.9L501.9 365.58L493.8 367.34L495.27 360.04L489.46 360.65L487.74 363.23L486.85 363.12L486 360.45L487.96 359.32L488.6 353.7L481.39 356.09L480.86 359.84L480.17 360.6L478.04 359.59L477.87 361.83L476.66 362.82L476.36 358.99L474.11 355.83L474.81 354.84L473.3 351.71L467.88 350.19L464.07 347.31L465.08 340.77L472.82 337.27L472.19 335.25L475.31 331.07L476.34 326.19L477.99 324.76L479.2 325.47L483.31 324.18L484.59 321.05L486.85 320.3L487.99 322.7L490.41 323.76L491.76 321.38L492.68 322.69L495.59 317.89L497.27 317.91Z" stroke="#777777"/>
<path id="MX-JAL" title="Jalisco" 		 d="M391.17 310.51L393.22 309.39L397.43 309.77L401.34 312.2L405.62 311.1L408.89 307.05L413.17 305.08L411.21 302.94L411.19 300.75L414.73 301.66L421.9 306.29L420.68 307.58L421.42 308.41L420.22 309.77L418.82 316L419.75 318.78L419.08 320.15L417.18 320.61L415.65 324.71L413.16 326.62L411.25 330.57L407.31 334.86L411.08 339.47L408.91 345.67L398.18 347.22L389.63 353.13L385.67 351.42L385.37 352.57L384.08 352.64L383.67 357.34L386.89 357.11L390.76 358.69L391.37 360.9L390.11 362.45L392.02 366.65L391.39 369.24L394.75 369.17L395.42 371.41L392.21 376.22L388.53 376.36L380.72 382.89L378.64 381.12L376.42 382.82L373.21 382.93L372.34 379.43L373.33 373.19L371.08 371.1L370.76 367.19L364.42 371.15L359.76 371.04L356.66 373.36L349.94 373.75L348.59 375.17L346.89 374.8L345.41 376.59L343.49 376.54L340.22 375.68L340.61 374.03L338.56 374.36L334.67 371.57L333.24 367.09L327.16 361.61L321.72 352.85L321.59 349.42L318.54 346.24L318.08 344.59L320.08 342.95L327.49 341.79L328.99 340.69L329.65 339.08L328.06 337.05L332.51 331.43L336.01 331.45L340.45 328.8L343.16 330.96L346.24 331.74L353.96 340.08L352 334.53L353.27 333.71L354.77 325.2L358.81 324.97L364.69 322.04L365.25 315.52L362.12 309.99L357.62 309.39L356.66 305.06L353.82 303.33L352.17 303.85L351.71 300.83L352.77 295.46L353.85 294.25L355.2 294.59L355.56 291.56L358.66 290.39L358.41 294.49L360.21 293.35L361.24 292.17L359.45 286.11L364.27 284.2L366.08 285.21L361.67 293.03L361.63 296.35L362.84 298.13L364 298.3L364.38 297.14V290.1L368.44 288.86L371.26 290.69L371.86 292.62L368.04 299.95L368.53 301.06L374.03 300.56L377.35 296.94L376.11 295.91L376.42 294.04L378.3 293.31L380.47 293.48L380.12 295.85L383.28 296.81L381.39 303.19L376.11 305.76L371.42 309.56L371.27 313.82L367.86 316.16L368.71 318.64L371.33 318.83L371.57 320.43L366.36 323.36L369.03 324.48L371.47 327.48L373.73 327.29L376.63 328.9L380.06 327.67L381.77 328.1L383.35 327.21L384.31 324.65L387.2 324.66L393.07 320.35L394.51 316.35L391.73 314.57L391.17 310.51Z" stroke="#777777"/>
<path id="MX-MEX" title="México" 			 d="M464.07 347.31L467.88 350.19L473.3 351.71L474.81 354.83L474.11 355.83L476.36 358.99L476.66 362.82L477.87 361.82L478.04 359.58L480.17 360.59L480.86 359.82L481.39 356.07L488.6 353.68L487.96 359.31L486 360.43L486.86 363.1L487.74 363.21L489.46 360.63L495.28 360.02L493.81 367.32L496.06 369.5L497.02 381.06L493.51 383.3L490.96 382.36L489.05 379.94L488.98 375.87L485.82 372.48L483.49 367.6L480.7 372.04L477.53 374.79L480.25 380.15L474.05 390.73L472.42 391.1L468.72 389.4L469.08 391.12L467.32 391.44L466.88 393L459.55 394L459.89 395.98L457.42 396.56L454.25 399.17L452.46 396.13L448.96 395.41L450.87 392.87L448.65 389.32L450.44 383.17L450.14 380.23L455.41 370.39L454.97 365.21L453.45 362.79L456.69 361.88L458.3 358.12L457.48 354.26L460.03 353.95L461.95 351.94L461.12 349.25L462.9 349.42L464.07 347.31Z" stroke="#777777"/>
<path id="MX-MIC" title="Michoacán"  d="M408.91 345.67L411.22 346.68L411.54 349.93L412.79 350.47L413.97 349.77L417.57 350.36L419.58 347.56L423.74 347.02L426.17 349.57L424.5 349.32L425.44 354.79L429.78 355.77L431.33 353.85L434.93 353.69L435.44 356.6L443.37 357.53L446.69 356.03L446.86 357.77L448.69 355.4L451.93 353.97L451.58 347.59L457.46 354.29L458.28 358.15L456.67 361.9L453.43 362.81L454.96 365.24L455.39 370.42L450.12 380.26L447.87 381.64L443.41 387.55L442.42 385.94L440.85 387.82L442.37 395.2L445.2 398.99L444.43 400L438.67 396.64L436.61 397.62L435.35 395.13L428.43 394.04L422.73 395.46L419.53 392.65L416.7 393.54L416.64 392.48L415.42 393.99L414.89 393.17L413.24 393.99L412.94 395.15L413.42 401.01L415.08 401.3L412.64 401.21L406.16 403.83L406.87 409.03L405.78 410.32L376.48 401.2L372.67 398.88L370.9 394.77L368.03 392.54L366.83 389.81L369.37 386.93L369.34 385.14L370.74 385.17L373.21 382.93L376.42 382.82L378.64 381.12L380.72 382.89L388.53 376.36L392.21 376.22L395.42 371.41L394.75 369.17L391.39 369.24L392.02 366.65L390.11 362.45L391.37 360.9L390.76 358.69L386.89 357.11L383.67 357.34L384.08 352.64L385.37 352.57L385.67 351.42L389.63 353.13L398.18 347.22L408.91 345.67Z" stroke="#777777"/>
<path id="MX-MOR" title="Morelos" 		 d="M480.23 380.17L482.89 381.1L484.82 379.89L485.73 380.69L489.03 379.96L490.94 382.38L493.49 383.32L497 381.08L494.24 388.16L495.51 396L494.96 396.72L491.69 394.2L486.35 398.99L484.05 396.65L478.54 395.96L476.52 393.28L473.88 392.7L474.03 390.75L480.23 380.17Z" stroke="#777777"/>
<path id="MX-NA"  title="Nayarit" 		 d="M304.65 319.91L304.02 321.1L303.56 320.39L304.65 319.91ZM299.47 315.56L301.43 316.56L300.78 317.7L298.1 316.3L299.47 315.56ZM294.05 310.26L296.67 310.96L297.58 313.64L294.61 312.75L294.05 310.26ZM318.33 286.76L320.02 297.06L316.53 288.04L318.67 289.32L318.33 286.76ZM325.53 273.97L327.73 276.61L330.86 274.98L332.38 276.73L335.8 277.49L336.38 279.96L338.05 280.3L337.58 282.43L334.18 285.06L336.38 289.64L339.23 286.26L347.58 294.03L351.4 291.31L352.75 295.47L351.69 300.84L352.15 303.86L353.81 303.34L356.65 305.06L357.61 309.4L362.11 310L365.24 315.53L364.68 322.05L358.79 324.98L354.75 325.21L353.25 333.72L351.98 334.54L353.94 340.09L346.23 331.75L343.15 330.96L340.44 328.8L336 331.45L332.49 331.44L328.04 337.06L326.82 335.31L325.47 335.97L322.47 334.98L327.63 327.92L328.65 328.27L329.79 326.65L329.35 319.7L330.54 315.76L324.22 312.06L319.82 303.42L319.28 297.56L320.08 297.18L323.44 300.26L323.74 298.74L321.1 297.86L321.21 296.33L320.11 296.38L318.78 286.55L324.34 288.36L324.47 285.43L322.11 281.13L325.53 273.97Z" stroke="#777777"/>
<path id="MX-NLE" title="Nuevo León" d="M467.47 146.58L465.54 148.65L462.76 149.45L462.06 152L466.66 152.64L465.54 154.94L466.81 155.81L466.83 159.65L467.98 160.78L468.4 163.97L465.95 167.75L466.08 168.87L469.32 170.26L468.62 174.77L470.97 175.62L471.81 177.52L473.69 177.74L476.75 184.37L478.16 184.24L479.27 186.86L481.34 186.27L481.92 188.94L481.03 189.27L485.5 190.84L487.34 193.77L496.09 192.69L497.02 195.17L496.92 205.25L500.33 207.49L493.82 213.71L489.44 214.56L487.7 217.73L484.9 217.51L483.78 216.3L480.81 219.08L482.08 221.68L479.41 225.73L478.29 226.18L477.53 224.79L474.9 227.9L473.14 227.8L471.84 229.93L466.98 232.55L466.29 234.65L468.34 234.84L469.6 237.46L468.74 244.23L474.04 253.07L471.79 252.63L469.33 255.21L466.07 254.68L463.76 255.91L461.29 261.45L461.47 266.06L458.38 265.68L457.7 268.48L453.8 267.74L451.46 270.54L448.72 268.35L447.4 261.34L448.55 255.74L447.47 253.39L447.68 249.02L442.37 239.69L443.57 238.12L443.41 235.96L440.97 235.65L439.25 233.33L439.8 232.91L440.8 229.65L438.66 225.48L438.69 223.45L441.46 222.63L440.48 217.54L442.18 214.32L444.62 212.63L446.36 212.8L447.67 214.33L453.02 215.24L454.26 213L452.49 210.93L448.89 210.3L449.4 209.25L445.3 206.52L444.39 202.75L440.31 201.87L439.23 197.62L440.22 194.72L437.56 192.85L436.51 189.74L429.27 182.94L429.25 181.64L433.58 175.59L437.09 175.31L439.7 173.61L442.9 173.65L445.09 170.69L445.93 168.45L445.51 163.32L442.83 161.77L441.54 164.94L438.72 162.87L438.47 159.53L440.3 156.55L441.49 155.51L447.64 154.6L447.77 151.52L451.14 145.95L460.33 146.61L464.55 143.85L467.47 146.58Z" stroke="#777777"/>
<path id="MX-OAX" title="Oaxaca"				 d="M544.51 396.83L546.19 391.48L548.34 392.99L547.76 394.26L549.01 397.9L553.66 399.88L554.68 401.77L556.06 401.86L555.52 402.76L558.69 402.33L563.82 403.58L564.6 408.62L562.08 412.99L564.42 419.31L570.51 419.07L578.81 415.03L580.18 415.87L578.28 418.34L585.09 425.54L585.39 428.47L613.96 430.22L612.09 437.67L609.15 440.29L606.96 446.58L608.12 450.36L607.72 453.93L605.29 455.17L602.39 453.96L601.5 452.45L599.72 454.51L600.84 455.47L605.21 455.79L608.28 458.08L608.1 458.72L600.43 455.74L592.74 454.62L596.27 451.49L593.89 450.65L590.47 452.83L591.47 451.5L589.22 448.91L587.55 449.35L586.25 451.58L585 451.55L583.24 454.09L591.62 454.61L582.14 455.18L578.85 456.42L574.99 460.61L561.65 464.57L554.7 468.25L546.81 468.92L539.26 466.83L530.48 462.11L516.38 460.7L505.26 454.06L496.77 451.84L501.41 448.29L501.87 446.28L505.98 442.69L506.17 441.34L509.22 439.53L510.14 436.65L507.93 433.71L507.59 430.63L504.74 429.34L505.84 426.44L505.23 421.86L502.5 415.8L504.41 410.43L509.25 407.32L514.16 406.72L518.25 408.48L519.95 406.41L517.16 404.01L519.19 399.68L522.34 398.8L523.05 400.11L521.72 401.87L526.39 409.07L530.77 403.74L535.85 404.34L537.74 401.97L541.78 401.12L544.51 396.83Z" stroke="#777777"/>
<path id="MX-PUE" title="Puebla" 			 d="M512.24 338.92L515.14 332.82L518.35 332.89L518.34 334.68L517.11 335.43L518.95 336.14L518.74 337.82L522.26 341L520.76 343.47L519.15 342.55L517.98 343.31L518.5 349.69L521.22 350.02L522.67 352L526.32 347.99L533.38 350.47L526.97 365.45L528.14 370.24L536.13 373.32L536.71 375.19L536.02 376.01L531.2 375.79L531.53 382.81L529.6 385.77V388.76L530.81 390.6L534.62 391.71L536.31 395.59L537.74 395.69L540.08 393.84L542.66 394.67L544.51 396.83L541.78 401.12L537.74 401.97L535.85 404.34L530.77 403.74L526.39 409.07L521.72 401.87L523.05 400.11L522.34 398.8L519.19 399.68L517.16 404.01L519.95 406.41L518.25 408.48L514.16 406.72L509.25 407.32L504.41 410.43L501.2 407.65L496.92 408.69L496.79 407.61L492.59 405.83L493.2 404.06L490.22 404.26L489 402.01L486.3 400.21L486.35 398.99L491.69 394.2L494.96 396.72L495.51 396L494.24 388.16L497 381.08L496.05 369.52L497.91 369.6L503.98 375.98L508.04 378.22L511.97 375.4L514.77 376.3L517.41 373.13L521.75 372.39L522.03 371.24L518.9 368.03L515.94 367.98L516.07 366.25L511.26 361.78L508.61 363.78L506.55 363.4L505.85 358.67L508.2 350.79L507.74 348.6L505.62 349.08L504.92 347.67L508.54 345.82L512.31 341.92L512.24 338.92Z" stroke="#777777"/>
<path id="MX-QUE" title="Querétaro"  d="M484.59 321.05L483.31 324.18L479.2 325.47L477.99 324.76L476.34 326.19L475.31 331.07L472.19 335.25L472.82 337.27L465.08 340.77L464.07 347.31L462.88 349.45L461.1 349.28L461.93 351.97L460.01 353.98L457.46 354.29L451.58 347.59L447.75 342.65L447.76 339.94L446.01 336.73L446.66 332.93L447.38 331.52L456.18 330.91L457.06 329.41L457.88 329.89L458.45 326.84L460.7 323.5L462.22 322.94L463.95 324.69L467.06 322.82L467.81 320.21L465.33 319.6L466.48 317.69L466.09 315.14L465.5 314.57L468.04 313.3L470.77 316.85L475.78 316.96L476.84 314.19L478.68 313.78L484.59 321.05Z" stroke="#777777"/>
<path id="MX-ROO" title="Quintana Roo" d="M792.83 339.73L790.62 343.79L786.13 348.16L785.59 344.54L787.88 340.79L790.11 341.14L792.83 339.73ZM732.3 409.6L732.05 407.14L735.06 403.04L734.88 395.29L733.26 390.24L733.84 382.6L735.42 381.27L735.6 375.42L732.19 370.75L725.55 364.69L727.19 359.88L730.73 359.71L734.55 357.27L738.17 356.82L740.09 355.04L741.17 355.96L743.08 353.35L750.37 350.33L752.12 347.06L754.42 348.7L754.17 346.51L755.67 343.75L761.03 343.85L768.99 338.5L772.61 330.17L771.38 326L772.87 321.22L772.54 315.91L780.21 317.71L783.21 316.31L783.45 313.3L785.78 314.04L788.85 318.13L789.82 322.18L791.21 319.79L790.48 317.82L791.13 318.04L790.84 323.91L792.23 325.56L786.95 336.09L779.67 342.78L775.46 349.41L774.05 353.39L775.26 358.51L774.68 359.88L773.83 360.71L775.23 358.46L774.55 357.49L773.57 360.57L771.54 361.02L769.92 363.74L767.49 364.16L767.3 366.06L769.15 366.99L769.16 368.62L770.64 367.28L772.83 367.59L773.39 366.4L775.65 366.99L774.91 369.49L772.93 371.4L772.54 370.58L770.08 372.06L768.8 375.79L770.51 376.55L772.54 373.76L773.79 373.54L773.45 374.94L774.77 373.74L772.56 376.37L764.92 402.8L763.55 402.32L764 398.92L762.52 397.75L762.71 396.72L759.05 394.71L761.06 390.51L759.28 385.47L755.93 389.43L756.92 389.25L753.68 395.17H748.95L748.03 395.99L743.39 406.44L739.77 409.95L739.88 411.55L735.41 408.05L732.3 409.6ZM783.04 313.12L778.82 315.21L777.43 313.93L780.55 314.38L783.04 313.12Z" stroke="#777777"/>
<path id="MX-SLP" title="San Luis Potosi"  d="M439.25 233.33L440.97 235.65L443.41 235.96L443.57 238.12L442.37 239.69L447.68 249.02L447.47 253.39L448.55 255.74L447.4 261.34L448.72 268.35L451.46 270.54L453.8 267.74L457.7 268.48L460.25 273.53L460.14 280.14L461.43 281.75L471.1 284.11L472.67 282.09L477.17 285.35L481.08 291.9L487.18 291.99L487.89 291.19L489.78 292.38L492.88 292.1L493.7 293.29L500.49 294.62L502.35 298.91L498.75 299.68L498.81 302.9L495.96 303.33L497.47 303.71L497.11 305.73L499.37 307.93L494.91 311.04L495.8 314.35L497.13 314.57L497.27 317.91L495.59 317.89L492.68 322.69L491.76 321.38L490.41 323.76L487.99 322.7L486.85 320.3L484.59 321.05L478.68 313.78L476.84 314.19L475.78 316.96L470.77 316.85L468.04 313.3L465.5 314.57L466.09 315.14L463.45 316.47L461.16 315.59L458.96 316.3L453.36 311.57L449.47 310.29L448.39 311.02L447.92 313.97L443.65 314.61L435.94 309.46L423.68 305.98L426.58 298.71L425.2 294.85L428.69 285.9L426.01 283.37L420.1 288.68L415.59 289.36L413.19 285.34L409.81 284.42L403.58 279.57L404.79 272.81L403.65 267.29L405.18 265.42L407.5 266.35L410.44 265.77L411.81 263.3L417.65 260.33L421.13 255.19L425.87 253.6L428.15 249.1L427.14 247.92L427.97 244.47L431.84 242.49L433.64 238.7L436.2 238.27L439.25 233.33Z" stroke="#777777"/>
<path id="MX-SIN" title="Sinaloa" 		 d="M256.9 219.31L258.83 220.78L259.17 225.51L256.92 222.22L256.9 219.31ZM252.08 217.26L257.09 222.75L257.86 225.27L252.08 217.26ZM229.95 184.16L230.98 184.28L230.93 185.94L232.71 187.41L233.13 185.63L231.24 182.65L231.39 180.9L231.63 182.77L232.51 182L234.2 184.76L240.4 181.31L240.98 177.95L245.07 176.97L247.13 173.11L248.99 172.56L248.7 170.07L252.13 164.4L257.69 164.56L257.81 167.46L259.65 167.45L260.7 169.78L260.63 175.96L262.04 176.87L266.44 188.45L275.8 190.58L281.42 201.49L282.36 202.73L279.43 205.72L280.58 207.04L279.25 210.25L278.66 217.34L282.09 222.79L281.76 224.24L282.96 225.19L285.79 224.98L286.69 227.59L288.01 227.89L292.94 239.88L296.49 239.46L299.95 236.29L303.99 237.47L307.41 240.07L310.41 246.54L312.28 254.04L315.98 258.88L317.2 265.54L319.9 272.16L323.39 271.77L325.51 273.95L322.1 281.09L324.46 285.39L324.33 288.32L318.77 286.51L317.8 282.35L317.91 289.38L314.19 283.57L300.55 269.86L302.22 270.48L300.77 269.33L299.67 269.78L297.22 264.57L290.16 257.49L288.14 252.37L280.62 245.41L281.85 245.25L281.51 244.14L280.23 244.73L265.32 234.53L272.64 239.09L273.41 237.04L271.64 233.84L270.36 233.87L270.47 235.26L269.35 235.5L268.26 234.07L266.62 234.41L264.81 231.99L260.8 230.55L258.7 226.74L260.53 227.63L261.22 226.45L260.16 225.26L260.57 221.68L258.76 218.42L256.31 217.76L254.11 215.24H252.47L252.58 214.11L251.33 213.53L250.7 215.6L248.83 213.44L243.43 210.74L243.58 209.62L242.26 209.97L240.74 207.65L240.98 205.69L238.13 205.06L237.53 207.95L235.99 206.7L234.27 207.94L232.44 205.81L234.08 204.4L235.91 204.84L237.28 203.51L236.94 202.2L234.82 202.8L233.95 204.63L231.59 204.56L229.5 201.87L230.71 204.23L226.25 202.7L228.11 202.63L228.18 200.67L225 199.59L224.2 194.23L229.16 184.37L227.76 188.46L228.5 188.84L229.95 184.16Z" stroke="#777777"/>
<path id="MX-SON" title="Sonora" 			 d="M230.97 184.28L229.94 184.16L230.97 184.28ZM195.25 155.06L196.74 157.27L195.24 156.36L195.25 155.06ZM153.18 102.25L155.39 108.75L152.55 116.1L145.74 112.46L147.99 110.37L147.6 107.12L148.91 103.26L153.18 102.25ZM94.2602 29.29L95.0502 30.05L93.5902 29.64L94.2602 29.29ZM90.5302 27.48L93.5802 30.35L93.8202 32.12L90.4002 30.11L90.5302 27.48ZM241.06 41.7L242.11 42.74L241.17 44.02L243.58 50.37L243.11 53.46L241.5 54.15L244.23 56.8L244.31 59.22L245.35 60.14L244.79 62.56L247.76 71.37L246.79 74.7L248.24 76.02L246.38 84.63L248.04 86.61L248.71 92.83L248 102.95L246.33 104.14L246.23 106.83L244.74 108.1L245.15 114.57L243.48 118.23L243.89 123.08L247.69 125.75L242.65 129.43L239.6 128.01L235.62 129.35L234.58 130.74L236.33 132.42L236.12 135.87L237.95 136.61L240.04 139.59L239.71 143.7L243.05 146.05L246.28 153.63L244.79 162.82L248.33 164.66L252.11 164.43L248.68 170.1L248.97 172.59L247.11 173.14L245.05 177L240.96 177.98L240.38 181.34L234.18 184.79L232.49 182.03L231.61 182.8L231.37 180.93L231.22 182.68L230.55 183.23L225.77 175.52L223.47 174.36L224.57 174.16L223.24 172.52L222.14 172.06L221.84 173.88L218.67 174.46L214.95 172.43L211.65 165.54L212.81 166.74L212.3 163.45L210.57 162.07L208.77 162.99L202.76 161.07L198.32 157.34L198.31 154.9L196.46 154.34L194.59 147.84L196.07 146.09L195.08 146.76L195.94 144.87L195.3 142.52L196.86 141.4L189.68 138.61L188.04 139.48L188.4 141.44L186.21 140L186 138.58L183.34 139.06L180.87 137.37L178.33 134.94L173.8 127.05L167.48 124.29L166.16 120.54L161.66 115.63L162.74 114.98L163.27 116.15L163.89 114.89L159.49 112.94L157.82 110.3L155.91 109.75L156.12 105.7L154.51 103.76L154.43 100.15L149.99 99.1L150.79 95.19L145.74 88.59L143.62 83.45L141.55 82.73L140.91 73.93L138.96 72.04L137.88 66.99L135.47 64.94L132.93 60.28L132.02 56.84L133.86 49.48L132.86 46.05L129.41 43.62L128.59 44.35L119.63 41.9L118.81 37.09L112.57 33.29L110.83 34.01L111.21 35.08L109.37 37.13L106.52 37.03L95.4402 29.37L90.2002 27.47L84.5102 23.63L85.6202 16.03L84.2202 14.04L87.1602 7.72997L89.8202 7.59998L183.47 41.82L241.06 41.7Z" stroke="#777777"/>
<path id="MX-TAB" title="Tabasco" 		 d="M649.15 391.05L650.92 395.68L654.04 397.8L655.02 397.42L658.7 405.56L663.04 409.31L668.06 410.94L671.03 410.18L671.3 406.34L674.09 406.21L677.74 407.01L681.72 410.12L686.38 411.28L686.36 412.92L686.15 427.42L675.59 427.6L676.88 426.29L675.78 424.5L669.94 422.11L670.69 419.45L669.42 416.15L666.86 414.89L665.75 411.52L662.76 412.06L660.87 410.8L660.16 412.64L656.45 412.19L655.95 415.46L652.66 416.65L641.93 424.85L639.21 421.07L636.62 420.96L636.92 419.09L634.85 416.91L636.39 411.58L633.6 411.67L629.3 408.78L627.1 409.66L626.35 416.74L620.58 425.35L618.65 424.59L617.37 417.07L612.84 415L608.95 411.62L607.79 403.9L609.81 403.24L607.54 402.85L609.43 401.96L613.89 400.45L614.03 401.69L616.69 401.22L617.69 399.43L621.02 399.56L621.5 397.74L625.88 396.75L631.26 396.52L632.14 396.93L631.55 398.37L633.88 398.24L632.43 396.94L638.62 396.46L643.92 392.07L649.15 391.05Z" stroke="#777777"/>
<path id="MX-TAM" title="Tamaulipas" d="M524.56 214.11L522.18 221.24L522.11 218.97L524.56 214.11ZM515.86 295.43L513.86 296.83L510.72 293L506.64 291.24L505.92 289.94L503.38 290.23L503.19 291.62L501.21 292.06L498.82 290.84L492.88 292.1L489.78 292.37L487.89 291.19L487.18 291.98L481.07 291.89L477.16 285.34L472.66 282.08L471.09 284.1L461.42 281.74L460.14 280.12L460.25 273.51L457.7 268.46L458.38 265.66L461.48 266.04L461.3 261.43L463.77 255.89L466.08 254.66L469.34 255.2L471.8 252.61L474.05 253.06L468.75 244.22L469.61 237.45L468.35 234.82L466.29 234.63L466.98 232.53L471.84 229.91L473.15 227.78L474.9 227.89L477.54 224.78L478.3 226.17L479.41 225.72L482.08 221.66L480.81 219.06L483.78 216.28L484.89 217.49L487.69 217.72L489.43 214.54L493.81 213.69L500.32 207.47L496.91 205.23L497.02 195.15L496.09 192.66L487.34 193.74L485.5 190.81L481.03 189.24L481.93 188.91L481.35 186.24L479.28 186.83L478.17 184.21L476.75 184.33L473.69 177.71L471.81 177.48L470.96 175.58L468.61 174.73L469.31 170.22L466.07 168.83L465.94 167.71L468.4 163.93L467.98 160.74L466.83 159.6L466.81 155.76L465.54 154.89L466.67 152.59L462.06 151.95L462.76 149.4L465.54 148.6L467.47 146.54L470.65 147.31L472.77 149.51L472.39 151.23L473.57 151.76L472.24 156.65L474.51 158.37L474.5 164.65L478.53 169.22L481.36 178.06L483.29 179.78L482.82 181.04L483.79 182.06L490.58 182.89L493.72 186.06L499.58 186.9L505.69 191.58L515.47 191.38L516.55 192.33L519.44 192.32L524.95 197.47L526.46 197.2L527.05 194.94L532.06 194.32L530.75 203.07L525.1 214.14L524.31 213.89L525.87 209.59L522.34 207.57L521.34 208.65L523.3 210.55L521.74 211.24L522.41 212.66L521.64 212.94L521.34 211.57L520.51 212.18L520.14 210.48L518.35 210.24L517.73 213.25L516.11 213.29L518.92 215.83L516.86 221.13L519.25 222.5L517.08 224.69L517.96 230.42L517.09 234.65L516.44 232.72L514.6 232.35L514.14 233.71L515.32 238.39L516.81 235.91L517.05 239.13L516.37 245.54L515.4 245.79L516.29 246.22L516.99 257.29L517.28 254.32L516.43 278.56L513.19 285.94L514.17 286.67L513.82 290.46L515.86 295.43Z" stroke="#777777"/>
<path id="MX-TLA" title="Tlaxcala" 	 d="M506.55 363.4L508.61 363.78L511.26 361.78L516.07 366.25L515.94 367.98L518.9 368.03L522.03 371.24L521.75 372.39L517.41 373.13L514.77 376.3L511.97 375.4L508.04 378.22L503.98 375.98L497.91 369.6L496.05 369.52L493.8 367.34L501.9 365.58L504.17 362.9L506.55 363.4Z" stroke="#777777"/>
<path id="MX-VER" title="Veracruz" 	 d="M525.63 316.04L524.08 319.07L523.96 317.56L525.63 316.04ZM520.29 306.56L527.52 313.87L524.64 321.54L526.09 314.71L520.21 307.92L518.35 303.55L520.29 306.56ZM492.88 292.1L498.82 290.84L501.21 292.06L503.19 291.62L503.38 290.23L505.92 289.94L506.64 291.24L510.72 293L513.86 296.83L515.86 295.43L518.68 311.19L521.45 316.49L523.48 316.9L523.6 319.95L531.24 337.82L549.55 359.54L551.35 367L552.87 369.13L553.35 373.56L557.45 376.49L559.06 380.07L561.47 380.41L563.3 385.62L566.82 387.31L566.83 388.03L563.82 386.61L565.29 388.64L564.33 389.34L566.97 388.59L567.19 387.4L571.7 389.3L581.23 389.54L584.81 393.05L590.86 394.39L592.32 397.67L595.12 400.46L595.68 402.85L598.35 404.13L609.4 401.94L607.51 402.83L609.78 403.22L607.76 403.88L608.92 411.6L612.81 414.98L617.34 417.05L618.62 424.57L620.55 425.33L613.94 430.21L585.37 428.46L585.07 425.53L578.26 418.34L580.16 415.87L578.79 415.03L570.48 419.08L564.4 419.32L562.05 413L564.58 408.63L563.79 403.59L558.66 402.34L555.49 402.77L556.02 401.87L554.64 401.78L553.62 399.89L548.96 397.9L547.71 394.26L548.29 392.99L546.14 391.48L544.46 396.83L542.61 394.66L540.03 393.84L537.68 395.69L536.25 395.59L534.56 391.71L530.75 390.59L529.54 388.75V385.77L531.47 382.81L531.13 375.79L535.95 376.01L536.64 375.19L536.06 373.32L528.07 370.24L526.91 365.46L533.32 350.48L526.26 347.99L522.61 352L521.16 350.03L518.44 349.7L517.92 343.32L519.09 342.56L520.7 343.48L522.2 341L518.68 337.83L518.89 336.15L517.05 335.44L518.28 334.68L518.29 332.89L515.07 332.83L512.17 338.92L509.88 338.33L500.45 346.33L499.07 345.47L497.9 342.88L499.06 335.84L502.42 332.28L504.22 333.67L505.67 333.44L506 329.54L507.86 327.08L505.33 323.66L499.87 323.21L498.04 321.5L498.34 318.84L497.19 317.92L497.06 314.57L495.73 314.35L494.84 311.04L499.3 307.93L497.04 305.73L497.4 303.71L495.89 303.33L498.74 302.9L498.68 299.67L502.27 298.9L500.42 294.61L493.63 293.27L492.88 292.1Z" stroke="#777777"/>
<path id="MX-YUC" title="Yucatán" 		 d="M772.53 315.9L772.86 321.2L771.37 325.99L772.6 330.16L768.99 338.49L761.03 343.85L755.68 343.74L754.18 346.5L754.43 348.69L752.13 347.05L750.38 350.32L743.09 353.34L741.18 355.95L740.1 355.03L738.18 356.81L734.56 357.25L730.74 359.69L727.2 359.86L725.56 364.68L724.33 360.78L719.99 354.71L716.14 352.61L710.84 343.28L708.75 344.83L706.25 344.01L705.28 342L701.15 341.48L701.31 334.19L702.56 329.99L700.56 334.17L700.86 332.62L702.93 328.28L715.27 322.12L739.93 318.26L744.96 316.35L745.52 314.95L754.25 314.04L757.84 312.2L765.08 314L766.59 315.38L771.08 315.6L767.3 314.67L772.53 315.9Z" stroke="#777777"/>
<path id="MX-ZAC" title="Zacatecas"	 d="M391.84 219.96L392.49 217.8L397.89 216.73L407.29 217.34L412.33 220.02L416.45 224.75L419.08 224.66L419.7 228.22L425.72 226.85L428.68 227.22L433.22 233.1L435.31 233.91L437.68 232.44L439.8 232.91L439.25 233.33L436.2 238.27L433.64 238.7L431.84 242.49L427.97 244.47L427.14 247.92L428.15 249.1L425.87 253.6L421.13 255.19L417.65 260.33L411.81 263.3L410.44 265.77L407.5 266.35L405.18 265.42L403.65 267.29L404.79 272.81L403.58 279.57L409.81 284.42L413.19 285.34L415.59 289.36L420.1 288.68L426.01 283.37L428.69 285.9L425.2 294.85L426.58 298.71L423.68 305.98L422.87 306.92L421.9 306.29L414.73 301.66L411.19 300.75L409.46 296.27L402.19 291.08L400.59 293.26L394.26 296.34L388.76 307.04L391.17 310.51L391.73 314.57L394.51 316.35L393.07 320.35L387.2 324.66L384.31 324.65L383.35 327.21L381.77 328.1L380.06 327.67L376.63 328.9L373.73 327.29L371.47 327.48L369.03 324.48L366.36 323.36L371.57 320.43L371.33 318.83L368.71 318.64L367.86 316.16L371.27 313.82L371.42 309.56L376.11 305.76L381.39 303.19L383.28 296.81L380.12 295.85L380.47 293.48L378.3 293.31L376.42 294.04L376.11 295.91L377.35 296.94L374.03 300.56L368.53 301.06L368.04 299.95L371.86 292.62L371.26 290.69L368.44 288.86L364.38 290.1V297.14L364 298.3L362.84 298.13L361.63 296.35L361.67 293.03L366.08 285.21L364.27 284.2L359.45 286.11L361.24 292.17L360.21 293.35L358.41 294.49L358.66 290.39L355.56 291.56L355.2 294.59L353.85 294.25L352.77 295.46L351.42 291.3L353.59 286.74L357.05 284.69L356.44 274.77L358.42 271.67L359.8 264.02L364.92 258.71L363.5 246.19L365.9 245.47L374.81 235.97L380.94 236.94L384.31 236.24L387.97 237.81L388.73 236.9L396.48 236.55L396.12 235.09L397.09 234.57L396.07 230.57L394.86 230.12L395.67 225.22L392.23 222.13L391.84 219.96Z" stroke="#777777"/>
</svg>
